<svg xmlns="http://www.w3.org/2000/svg" version="1.1" xmlns:xlink="http://www.w3.org/1999/xlink" xmlns:svgjs="http://svgjs.dev/svgjs" viewBox="0 0 800 800"><g fill="none" stroke-width="3" stroke="hsl(335, 77%, 50%)" stroke-linecap="round"><line x1="354" y1="400" x2="446" y2="400" transform="rotate(0, 400, 400)" opacity="0.91"></line><line x1="193.5" y1="400" x2="606.5" y2="400" transform="rotate(4, 400, 400)" opacity="0.10"></line><line x1="177" y1="400" x2="623" y2="400" transform="rotate(8, 400, 400)" opacity="0.93"></line><line x1="181" y1="400" x2="619" y2="400" transform="rotate(12, 400, 400)" opacity="0.38"></line><line x1="444" y1="400" x2="356" y2="400" transform="rotate(16, 400, 400)" opacity="0.09"></line><line x1="586" y1="400" x2="214" y2="400" transform="rotate(20, 400, 400)" opacity="0.55"></line><line x1="278.5" y1="400" x2="521.5" y2="400" transform="rotate(24, 400, 400)" opacity="0.56"></line><line x1="49.5" y1="400" x2="750.5" y2="400" transform="rotate(28, 400, 400)" opacity="0.72"></line><line x1="719.5" y1="400" x2="80.5" y2="400" transform="rotate(32, 400, 400)" opacity="0.81"></line><line x1="530.5" y1="400" x2="269.5" y2="400" transform="rotate(36, 400, 400)" opacity="0.28"></line><line x1="84" y1="400" x2="716" y2="400" transform="rotate(40, 400, 400)" opacity="0.08"></line><line x1="292.5" y1="400" x2="507.5" y2="400" transform="rotate(44, 400, 400)" opacity="0.31"></line><line x1="291" y1="400" x2="509" y2="400" transform="rotate(48, 400, 400)" opacity="0.16"></line><line x1="670" y1="400" x2="130" y2="400" transform="rotate(52, 400, 400)" opacity="0.40"></line><line x1="248" y1="400" x2="552" y2="400" transform="rotate(56, 400, 400)" opacity="0.76"></line><line x1="37.5" y1="400" x2="762.5" y2="400" transform="rotate(60, 400, 400)" opacity="0.66"></line><line x1="104.5" y1="400" x2="695.5" y2="400" transform="rotate(64, 400, 400)" opacity="0.35"></line><line x1="223.5" y1="400" x2="576.5" y2="400" transform="rotate(68, 400, 400)" opacity="0.89"></line><line x1="144" y1="400" x2="656" y2="400" transform="rotate(72, 400, 400)" opacity="0.16"></line><line x1="744.5" y1="400" x2="55.5" y2="400" transform="rotate(76, 400, 400)" opacity="0.16"></line><line x1="517" y1="400" x2="283" y2="400" transform="rotate(80, 400, 400)" opacity="0.42"></line><line x1="136" y1="400" x2="664" y2="400" transform="rotate(84, 400, 400)" opacity="0.95"></line><line x1="275.5" y1="400" x2="524.5" y2="400" transform="rotate(88, 400, 400)" opacity="0.34"></line><line x1="560.5" y1="400" x2="239.5" y2="400" transform="rotate(92, 400, 400)" opacity="0.09"></line><line x1="484" y1="400" x2="316" y2="400" transform="rotate(96, 400, 400)" opacity="0.66"></line><line x1="538.5" y1="400" x2="261.5" y2="400" transform="rotate(100, 400, 400)" opacity="0.38"></line><line x1="167.5" y1="400" x2="632.5" y2="400" transform="rotate(104, 400, 400)" opacity="0.29"></line><line x1="94.5" y1="400" x2="705.5" y2="400" transform="rotate(108, 400, 400)" opacity="0.09"></line><line x1="557.5" y1="400" x2="242.5" y2="400" transform="rotate(112, 400, 400)" opacity="0.60"></line><line x1="328" y1="400" x2="472" y2="400" transform="rotate(116, 400, 400)" opacity="0.59"></line><line x1="109.5" y1="400" x2="690.5" y2="400" transform="rotate(120, 400, 400)" opacity="0.88"></line><line x1="631" y1="400" x2="169" y2="400" transform="rotate(124, 400, 400)" opacity="0.54"></line><line x1="733" y1="400" x2="67" y2="400" transform="rotate(128, 400, 400)" opacity="0.13"></line><line x1="241.5" y1="400" x2="558.5" y2="400" transform="rotate(132, 400, 400)" opacity="0.61"></line><line x1="672" y1="400" x2="128" y2="400" transform="rotate(136, 400, 400)" opacity="0.93"></line><line x1="578" y1="400" x2="222" y2="400" transform="rotate(140, 400, 400)" opacity="0.31"></line><line x1="373" y1="400" x2="427" y2="400" transform="rotate(144, 400, 400)" opacity="0.94"></line><line x1="173.5" y1="400" x2="626.5" y2="400" transform="rotate(148, 400, 400)" opacity="0.34"></line><line x1="588" y1="400" x2="212" y2="400" transform="rotate(152, 400, 400)" opacity="0.68"></line><line x1="598.5" y1="400" x2="201.5" y2="400" transform="rotate(156, 400, 400)" opacity="0.82"></line><line x1="540" y1="400" x2="260" y2="400" transform="rotate(160, 400, 400)" opacity="0.45"></line><line x1="497.5" y1="400" x2="302.5" y2="400" transform="rotate(164, 400, 400)" opacity="0.17"></line><line x1="201.5" y1="400" x2="598.5" y2="400" transform="rotate(168, 400, 400)" opacity="0.53"></line><line x1="25" y1="400" x2="775" y2="400" transform="rotate(172, 400, 400)" opacity="0.60"></line><line x1="198.5" y1="400" x2="601.5" y2="400" transform="rotate(176, 400, 400)" opacity="0.63"></line><line x1="345" y1="400" x2="455" y2="400" transform="rotate(180, 400, 400)" opacity="0.78"></line><line x1="734" y1="400" x2="66" y2="400" transform="rotate(184, 400, 400)" opacity="0.72"></line><line x1="270" y1="400" x2="530" y2="400" transform="rotate(188, 400, 400)" opacity="0.09"></line><line x1="320.5" y1="400" x2="479.5" y2="400" transform="rotate(192, 400, 400)" opacity="0.94"></line><line x1="667.5" y1="400" x2="132.5" y2="400" transform="rotate(196, 400, 400)" opacity="0.86"></line><line x1="266" y1="400" x2="534" y2="400" transform="rotate(200, 400, 400)" opacity="0.72"></line><line x1="145.5" y1="400" x2="654.5" y2="400" transform="rotate(204, 400, 400)" opacity="0.88"></line><line x1="73.5" y1="400" x2="726.5" y2="400" transform="rotate(208, 400, 400)" opacity="0.98"></line><line x1="589" y1="400" x2="211" y2="400" transform="rotate(212, 400, 400)" opacity="0.99"></line><line x1="522.5" y1="400" x2="277.5" y2="400" transform="rotate(216, 400, 400)" opacity="0.23"></line><line x1="565.5" y1="400" x2="234.5" y2="400" transform="rotate(220, 400, 400)" opacity="0.69"></line><line x1="167" y1="400" x2="633" y2="400" transform="rotate(224, 400, 400)" opacity="0.72"></line><line x1="571" y1="400" x2="229" y2="400" transform="rotate(228, 400, 400)" opacity="0.66"></line><line x1="34.5" y1="400" x2="765.5" y2="400" transform="rotate(232, 400, 400)" opacity="0.08"></line><line x1="495.5" y1="400" x2="304.5" y2="400" transform="rotate(236, 400, 400)" opacity="0.10"></line><line x1="680.5" y1="400" x2="119.5" y2="400" transform="rotate(240, 400, 400)" opacity="0.75"></line><line x1="246.5" y1="400" x2="553.5" y2="400" transform="rotate(244, 400, 400)" opacity="0.22"></line><line x1="548.5" y1="400" x2="251.5" y2="400" transform="rotate(248, 400, 400)" opacity="0.53"></line><line x1="583.5" y1="400" x2="216.5" y2="400" transform="rotate(252, 400, 400)" opacity="0.59"></line><line x1="207.5" y1="400" x2="592.5" y2="400" transform="rotate(256, 400, 400)" opacity="0.61"></line><line x1="363" y1="400" x2="437" y2="400" transform="rotate(260, 400, 400)" opacity="0.22"></line><line x1="171.5" y1="400" x2="628.5" y2="400" transform="rotate(264, 400, 400)" opacity="0.14"></line><line x1="158" y1="400" x2="642" y2="400" transform="rotate(268, 400, 400)" opacity="0.65"></line><line x1="171.5" y1="400" x2="628.5" y2="400" transform="rotate(272, 400, 400)" opacity="0.50"></line><line x1="156" y1="400" x2="644" y2="400" transform="rotate(276, 400, 400)" opacity="0.46"></line><line x1="572" y1="400" x2="228" y2="400" transform="rotate(280, 400, 400)" opacity="0.84"></line><line x1="224.5" y1="400" x2="575.5" y2="400" transform="rotate(284, 400, 400)" opacity="0.73"></line><line x1="204" y1="400" x2="596" y2="400" transform="rotate(288, 400, 400)" opacity="0.60"></line><line x1="33" y1="400" x2="767" y2="400" transform="rotate(292, 400, 400)" opacity="0.25"></line><line x1="163" y1="400" x2="637" y2="400" transform="rotate(296, 400, 400)" opacity="0.81"></line><line x1="677" y1="400" x2="123" y2="400" transform="rotate(300, 400, 400)" opacity="0.78"></line><line x1="677" y1="400" x2="123" y2="400" transform="rotate(304, 400, 400)" opacity="0.54"></line><line x1="230.5" y1="400" x2="569.5" y2="400" transform="rotate(308, 400, 400)" opacity="0.91"></line><line x1="572" y1="400" x2="228" y2="400" transform="rotate(312, 400, 400)" opacity="0.96"></line><line x1="494.5" y1="400" x2="305.5" y2="400" transform="rotate(316, 400, 400)" opacity="0.93"></line><line x1="647" y1="400" x2="153" y2="400" transform="rotate(320, 400, 400)" opacity="0.64"></line><line x1="215" y1="400" x2="585" y2="400" transform="rotate(324, 400, 400)" opacity="0.54"></line><line x1="165" y1="400" x2="635" y2="400" transform="rotate(328, 400, 400)" opacity="0.98"></line><line x1="177.5" y1="400" x2="622.5" y2="400" transform="rotate(332, 400, 400)" opacity="0.95"></line><line x1="97.5" y1="400" x2="702.5" y2="400" transform="rotate(336, 400, 400)" opacity="1.00"></line><line x1="477.5" y1="400" x2="322.5" y2="400" transform="rotate(340, 400, 400)" opacity="0.91"></line><line x1="160" y1="400" x2="640" y2="400" transform="rotate(344, 400, 400)" opacity="0.98"></line><line x1="58.5" y1="400" x2="741.5" y2="400" transform="rotate(348, 400, 400)" opacity="0.51"></line></g></svg>